<?xml version="1.0" encoding="UTF-8" standalone="no"?><!DOCTYPE svg PUBLIC "-//W3C//DTD SVG 1.1//EN" "http://www.w3.org/Graphics/SVG/1.1/DTD/svg11.dtd"><svg width="100%" height="100%" viewBox="0 0 1537 518" version="1.1" xmlns="http://www.w3.org/2000/svg" xmlns:xlink="http://www.w3.org/1999/xlink" xml:space="preserve" xmlns:serif="http://www.serif.com/" style="fill-rule:evenodd;clip-rule:evenodd;stroke-linejoin:round;stroke-miterlimit:2;"><g><g><g><path d="M352.582,411.089c-27.799,13.151 -77.539,21.203 -122.894,21.203c-107.531,-0 -141.906,-62.913 -141.906,-144.098c0,-80.468 34.375,-142.643 141.906,-142.643c45.355,0 95.095,8.051 122.894,21.224l0,-89.974c-35.85,-10.959 -81.922,-16.081 -127.278,-16.081c-144.097,0 -225.304,100.934 -225.304,228.212c0,127.279 81.207,228.212 225.304,228.212c45.356,0 91.428,-5.859 127.278,-16.102l0,-89.953Z" style="fill:#fff;fill-rule:nonzero;"/></g></g></g><g><g><g><path d="M621.016,158.724l-113.389,-0l-0,-100.195l-87.761,-0l0,270.638c0,103.863 70.204,186.523 182.856,186.523c18.294,0 23.416,-2.213 35.851,-3.667l-0,-81.923c-9.527,1.454 -18.294,3.667 -32.921,3.667c-66.558,0 -98.025,-43.164 -98.025,-104.6l-0,-88.52l113.389,-0l0,-81.923Z" style="fill:#fff;fill-rule:nonzero;"/></g></g></g><g><g><g><path d="M797.287,329.167c-0,-57.053 25.608,-101.671 105.338,-101.671c9.506,-0 18.273,2.192 27.778,3.645l0,-84.852c-10.959,-1.454 -21.202,-3.646 -32.183,-3.646c-120.681,0 -188.715,83.377 -188.715,187.24l-0,182.14l87.782,-0l-0,-182.856Z" style="fill:#fff;fill-rule:nonzero;"/></g></g></g><g><g><g><rect x="988.917" y="0" width="87.782" height="512.023" style="fill:#fff;fill-rule:nonzero;"/></g></g></g><g><g><g><path d="M1477.47,283.073c27.062,-21.202 43.902,-52.669 43.902,-88.498c-0,-68.772 -62.175,-130.209 -139.714,-130.209l-212.131,0l0,447.657l226.758,-0c77.539,-0 139.714,-61.437 139.714,-130.209c-0,-41.688 -23.416,-77.517 -58.529,-98.741Zm-220.161,-136.784l124.349,0c29.254,0 51.932,21.94 51.932,50.477c-0,28.516 -22.678,50.478 -51.932,50.478l-124.349,-0l0,-100.955Zm0,182.878l138.976,-0c29.253,-0 51.931,21.94 51.931,50.455c0,28.538 -22.678,50.478 -51.931,50.478l-138.976,-0l0,-100.933Z" style="fill:#ffd700;fill-rule:nonzero;"/></g></g></g></svg>