<svg viewBox="0 0 1537 518" xmlns="http://www.w3.org/2000/svg" xml:space="preserve" style="fill-rule:evenodd;clip-rule:evenodd;stroke-linejoin:round;stroke-miterlimit:2"><path d="M352.582 411.089c-27.799 13.151-77.539 21.203-122.894 21.203-107.531 0-141.906-62.913-141.906-144.098 0-80.468 34.375-142.643 141.906-142.643 45.355 0 95.095 8.051 122.894 21.224V76.801C316.732 65.842 270.66 60.72 225.304 60.72 81.207 60.72 0 161.654 0 288.932c0 127.279 81.207 228.212 225.304 228.212 45.356 0 91.428-5.859 127.278-16.102v-89.953ZM621.016 158.724H507.627V58.529h-87.761v270.638c0 103.863 70.204 186.523 182.856 186.523 18.294 0 23.416-2.213 35.851-3.667V430.1c-9.527 1.454-18.294 3.667-32.921 3.667-66.558 0-98.025-43.164-98.025-104.6v-88.52h113.389v-81.923ZM797.287 329.167c0-57.053 25.608-101.671 105.338-101.671 9.506 0 18.273 2.192 27.778 3.645v-84.852c-10.959-1.454-21.202-3.646-32.183-3.646-120.681 0-188.715 83.377-188.715 187.24v182.14h87.782V329.167ZM988.917 0h87.782v512.023h-87.782z" style="fill:#fff;fill-rule:nonzero"/><path d="M1477.47 283.073c27.062-21.202 43.902-52.669 43.902-88.498 0-68.772-62.175-130.209-139.714-130.209h-212.131v447.657h226.758c77.539 0 139.714-61.437 139.714-130.209 0-41.688-23.416-77.517-58.529-98.741Zm-220.161-136.784h124.349c29.254 0 51.932 21.94 51.932 50.477 0 28.516-22.678 50.478-51.932 50.478h-124.349V146.289Zm0 182.878h138.976c29.253 0 51.931 21.94 51.931 50.455 0 28.538-22.678 50.478-51.931 50.478h-138.976V329.167Z" style="fill:gold;fill-rule:nonzero"/></svg>